version=1
nRows=49
nColumns=19
inDegrees=yes
endheader
time	ground_force_vx	ground_force_vy	ground_force_vz	ground_force_px	ground_force_py	ground_force_pz	1_ground_force_vx	1_ground_force_vy	1_ground_force_vz	1_ground_force_px	1_ground_force_py	1_ground_force_pz	ground_torque_x	ground_torque_y	ground_torque_z	1_ground_torque_x	1_ground_torque_y	1_ground_torque_z
0.00	22.741125	369.029327	7.176586	-0.220825	0.000000	-0.100362	5.214081	315.443237	-9.603951	-0.210975	0.000000	0.103679	-0.000000	-3.157580	0.000000	0.000000	1.341453	-0.000000
0.01	22.246273	369.620026	7.630670	-0.223134	0.000000	-0.100018	4.034019	314.995575	-8.442735	-0.212044	0.000000	0.104811	0.000000	-3.554442	-0.000000	0.000000	0.392579	-0.000000
0.02	20.039553	366.321442	9.709589	-0.218790	0.000000	-0.098475	2.905680	315.118164	-7.957918	-0.208639	0.000000	0.104004	-0.000000	-3.304984	0.000000	0.000000	0.880288	-0.000000
0.03	24.038185	369.334595	7.515764	-0.212650	0.000000	-0.097670	5.715868	314.244781	-9.878881	-0.211017	0.000000	0.103931	-0.000000	-2.435036	0.000000	0.000000	1.909763	-0.000000
0.04	23.105448	366.756500	9.377904	-0.216764	0.000000	-0.095813	4.534905	314.238892	-9.163450	-0.210647	0.000000	0.102801	-0.000000	-4.561491	0.000000	0.000000	1.209039	-0.000000
0.05	22.268967	368.747040	6.764294	-0.221458	0.000000	-0.097837	1.169534	314.259430	-9.606136	-0.211209	0.000000	0.102517	0.000000	-1.031994	-0.000000	-0.000000	-0.025926	0.000000
0.06	22.071297	369.480804	8.785875	-0.216023	0.000000	-0.096475	4.212291	314.077728	-7.791220	-0.211819	0.000000	0.104117	-0.000000	-1.925530	0.000000	0.000000	0.861241	-0.000000
0.07	23.628178	368.708649	12.110808	-0.214658	0.000000	-0.094763	5.185226	313.786469	-7.375116	-0.205284	0.000000	0.103590	-0.000000	-4.189545	0.000000	-0.000000	-0.023720	0.000000
0.08	22.494379	368.259705	10.341662	-0.218520	0.000000	-0.096383	2.370890	312.584778	-8.756692	-0.206524	0.000000	0.102868	-0.000000	-4.077292	0.000000	0.000000	0.973045	-0.000000
0.09	22.727617	370.221405	9.733285	-0.220055	0.000000	-0.096830	4.638479	313.077271	-8.810796	-0.212118	0.000000	0.104602	0.000000	-2.898232	-0.000000	-0.000000	-0.354901	0.000000
0.10	22.682520	370.945831	11.573386	-0.217989	0.000000	-0.096036	4.924767	313.749512	-6.780170	-0.213703	0.000000	0.105225	0.000000	-4.669704	-0.000000	0.000000	1.864272	-0.000000
0.11	21.386301	368.873199	10.522496	-0.215463	0.000000	-0.096354	2.913752	314.059509	-7.174784	-0.209265	0.000000	0.104763	-0.000000	-2.586840	0.000000	0.000000	1.061866	-0.000000
0.12	21.946627	372.028870	9.086830	-0.212895	0.000000	-0.095228	4.121495	310.664520	-8.788174	-0.212879	0.000000	0.101681	-0.000000	-1.193763	0.000000	0.000000	0.305385	-0.000000
0.13	22.388540	369.023590	8.272883	-0.216509	0.000000	-0.099047	5.521339	313.636566	-8.388247	-0.211539	0.000000	0.102768	-0.000000	-3.271330	0.000000	0.000000	1.007283	-0.000000
0.14	24.698639	371.416718	8.915649	-0.215771	0.000000	-0.096972	3.467417	312.035522	-11.393503	-0.211295	0.000000	0.101612	-0.000000	-3.538631	0.000000	0.000000	0.939585	-0.000000
0.15	23.691193	370.669678	11.172345	-0.213661	0.000000	-0.094739	3.352483	313.483582	-7.399241	-0.208999	0.000000	0.103322	-0.000000	-2.838162	0.000000	0.000000	0.006287	-0.000000
0.16	23.465626	369.454651	12.744585	-0.215054	0.000000	-0.093450	5.239250	315.237213	-4.118510	-0.205554	0.000000	0.104956	-0.000000	-4.018768	0.000000	-0.000000	-0.390193	0.000000
0.17	26.203758	370.843933	7.099953	-0.215256	0.000000	-0.095403	3.362602	313.627960	-7.674224	-0.211199	0.000000	0.102965	-0.000000	-1.455329	0.000000	0.000000	0.505545	-0.000000
0.18	21.142456	372.462280	8.370226	-0.218545	0.000000	-0.100379	3.038877	314.546478	-9.356791	-0.212448	0.000000	0.103985	-0.000000	-3.382139	0.000000	0.000000	0.943139	-0.000000
0.19	24.750111	371.441864	7.383665	-0.214084	0.000000	-0.097231	4.582052	313.770721	-9.093958	-0.208934	0.000000	0.103885	-0.000000	-1.535809	0.000000	0.000000	2.294189	-0.000000
0.20	24.064030	372.471619	9.088578	-0.214155	0.000000	-0.094860	5.023566	310.808441	-10.067058	-0.207159	0.000000	0.104079	-0.000000	-2.216935	0.000000	0.000000	1.974109	-0.000000
0.21	21.741716	370.366547	8.892435	-0.217165	0.000000	-0.097436	4.254721	312.581177	-9.376277	-0.216002	0.000000	0.106341	0.000000	-2.976040	-0.000000	-0.000000	2.919117	0.000000
0.22	22.905098	371.118408	10.198352	-0.219401	0.000000	-0.097377	2.456922	313.258118	-11.329563	-0.211034	0.000000	0.104112	-0.000000	-3.185243	0.000000	-0.000000	-0.295168	0.000000
0.23	23.715082	371.706970	7.434147	-0.218488	0.000000	-0.097562	4.183081	312.602936	-9.043649	-0.210759	0.000000	0.104013	0.000000	-3.889423	-0.000000	0.000000	0.948367	-0.000000
0.24	23.047512	370.821106	10.217347	-0.216362	0.000000	-0.094365	4.839836	311.841675	-6.783012	-0.205309	0.000000	0.104721	-0.000000	-2.300611	0.000000	-0.000000	-0.179381	0.000000
0.25	22.736874	371.717377	9.555032	-0.216793	0.000000	-0.094895	2.968717	310.363007	-7.908115	-0.211126	0.000000	0.103820	-0.000000	-2.353823	0.000000	-0.000000	-0.187882	0.000000
0.26	25.734022	372.186005	8.489784	-0.213333	0.000000	-0.097796	3.583871	315.441620	-9.012043	-0.211317	0.000000	0.107228	-0.000000	-2.397614	0.000000	0.000000	1.269736	-0.000000
0.27	29.716822	370.408661	19.107477	-0.205457	0.000000	-0.082444	8.040755	312.215973	-16.339455	-0.196647	0.000000	0.100533	0.000000	0.455227	-0.000000	-0.000000	-4.040510	0.000000
0.28	20.312939	363.430573	18.320354	-0.216077	0.000000	-0.087029	1.987934	316.232819	-8.717053	-0.181537	0.000000	0.103928	-0.000000	-5.154809	0.000000	-0.000000	-3.171433	0.000000
0.29	22.688967	368.865143	7.403820	-0.205618	0.000000	-0.100634	-1.912038	309.214264	-3.813069	-0.182798	0.000000	0.102112	-0.000000	-4.329392	0.000000	-0.000000	-0.425466	0.000000
0.30	25.720455	370.671234	12.909345	-0.180101	0.000000	-0.085855	1.974756	304.215912	-7.937271	-0.190947	0.000000	0.104553	-0.000000	-1.059884	0.000000	0.000000	0.400548	-0.000000
0.31	20.117380	359.191742	8.684316	-0.201777	0.000000	-0.088133	-5.313012	304.107635	-15.008397	-0.198537	0.000000	0.103994	0.000000	3.259724	-0.000000	0.000000	3.208580	-0.000000
0.32	18.874870	371.267700	6.734427	-0.219343	0.000000	-0.106049	1.274330	303.978973	-13.686887	-0.215734	0.000000	0.104626	0.000000	-3.825692	-0.000000	0.000000	2.966753	-0.000000
0.33	20.985622	375.914978	-0.864644	-0.220702	0.000000	-0.114600	0.017060	303.722046	-7.773534	-0.219651	0.000000	0.103178	-0.000000	-5.050502	0.000000	0.000000	3.064117	-0.000000
0.34	19.397175	370.703461	6.562176	-0.218925	0.000000	-0.101017	-0.029956	309.942749	-10.435245	-0.207310	0.000000	0.104356	-0.000000	-0.055871	0.000000	0.000000	0.009709	-0.000000
0.35	24.433910	364.561829	12.813903	-0.214103	0.000000	-0.089530	0.980036	308.016205	-14.021401	-0.204619	0.000000	0.103656	-0.000000	-0.065064	0.000000	0.000000	2.239078	-0.000000
0.36	24.008301	363.808655	1.158386	-0.212521	0.000000	-0.103578	3.446410	304.523926	-13.086532	-0.217512	0.000000	0.097180	-0.000000	-2.543367	0.000000	0.000000	4.294603	-0.000000
0.37	25.103315	372.031311	4.974466	-0.228132	0.000000	-0.099404	-0.189563	310.822815	-10.398380	-0.210434	0.000000	0.101816	0.000000	-2.578006	-0.000000	-0.000000	0.430044	0.000000
0.38	21.426706	373.047241	15.603273	-0.226904	0.000000	-0.095342	1.080023	310.604675	-7.929566	-0.207804	0.000000	0.103246	-0.000000	-4.105942	0.000000	-0.000000	2.163589	0.000000
0.39	26.784220	368.591919	13.090624	-0.221326	0.000000	-0.091361	5.328095	309.549652	-4.705583	-0.215169	0.000000	0.101419	-0.000000	-1.985247	0.000000	0.000000	0.603488	-0.000000
0.40	30.194588	371.702515	9.445301	-0.216717	0.000000	-0.090416	4.674938	307.322784	-12.792700	-0.202085	0.000000	0.103385	-0.000000	-4.664113	0.000000	-0.000000	-0.996069	-0.000000
0.41	18.788757	379.180634	7.246702	-0.219786	0.000000	-0.102682	-0.281284	309.754517	-9.720238	-0.204129	0.000000	0.105959	-0.000000	-4.131012	0.000000	0.000000	1.475074	0.000000
0.42	17.955650	385.200104	14.161996	-0.214147	0.000000	-0.102547	1.083510	311.665527	-8.394137	-0.210877	0.000000	0.104557	-0.000000	-1.921265	0.000000	-0.000000	2.091022	0.000000
0.43	18.680351	390.080475	21.627611	-0.202471	0.000000	-0.097279	2.394732	311.487061	-4.931244	-0.198678	0.000000	0.102812	-0.000000	-5.614057	0.000000	-0.000000	0.150157	0.000000
0.44	11.824730	395.481812	17.297667	-0.197769	0.000000	-0.106250	-6.975785	312.016266	-4.238993	-0.187016	0.000000	0.101625	-0.000000	-4.341404	0.000000	0.000000	0.860714	-0.000000
0.45	8.061530	401.789642	15.600324	-0.188263	0.000000	-0.109559	-4.433548	310.134949	-4.956356	-0.191289	0.000000	0.102071	-0.000000	-2.063331	0.000000	-0.000000	-0.888108	0.000000
0.46	8.616852	397.574982	15.563039	-0.189863	0.000000	-0.112820	-6.811384	301.669525	-12.412669	-0.197906	0.000000	0.102347	-0.000000	-5.153096	0.000000	0.000000	2.998825	-0.000000
0.47	5.276464	396.497589	22.507421	-0.191592	0.000000	-0.114617	-6.892633	295.082794	-7.836688	-0.185185	0.000000	0.105491	-0.000000	-7.645344	0.000000	0.000000	0.206725	-0.000000
0.48	1.390660	394.295837	23.408726	-0.183025	0.000000	-0.114364	-10.858567	282.246887	-10.684084	-0.192238	0.000000	0.103007	-0.000000	-3.168698	0.000000	0.000000	1.645478	0.000000
